<svg xmlns="http://www.w3.org/2000/svg" viewBox="0 0 32 32" width="32" height="32">
  <defs>
    <linearGradient id="shieldGradient" x1="0%" y1="0%" x2="100%" y2="100%">
      <stop offset="0%" style="stop-color:#6366f1;stop-opacity:1" />
      <stop offset="50%" style="stop-color:#4f46e5;stop-opacity:1" />
      <stop offset="100%" style="stop-color:#3730a3;stop-opacity:1" />
    </linearGradient>
    <filter id="shadow" x="-20%" y="-20%" width="140%" height="140%">
      <feDropShadow dx="1" dy="1" stdDeviation="1" flood-color="#000" flood-opacity="0.3"/>
    </filter>
  </defs>
  
  <!-- Shield Background -->
  <path d="M16 2 L26 6 L26 16 C26 22 22 26 16 30 C10 26 6 22 6 16 L6 6 Z" 
        fill="url(#shieldGradient)" 
        stroke="#1e293b" 
        stroke-width="0.8"
        filter="url(#shadow)"/>
  
  <!-- Central Security Lock -->
  <circle cx="16" cy="13" r="2.5" fill="none" stroke="white" stroke-width="1.2" opacity="0.95"/>
  <rect x="13.5" y="15.5" width="5" height="3.5" rx="0.8" fill="white" opacity="0.95"/>
  <circle cx="16" cy="17.2" r="0.6" fill="#4f46e5"/>
  
  <!-- Replay/Refresh Arrows -->
  <path d="M10 9 C10 9 12 7 16 7 C20 7 22 9 22 9" 
        stroke="white" 
        stroke-width="1.3" 
        fill="none" 
        opacity="0.8"
        stroke-linecap="round"/>
  <path d="M22 9 L20 7 M22 9 L20 11" 
        stroke="white" 
        stroke-width="1.3" 
        fill="none" 
        opacity="0.8"
        stroke-linecap="round"/>
  
  <!-- Data/Log Indicators -->
  <circle cx="11" cy="23" r="0.7" fill="white" opacity="0.7"/>
  <circle cx="16" cy="25" r="0.7" fill="white" opacity="0.7"/>
  <circle cx="21" cy="23" r="0.7" fill="white" opacity="0.7"/>
  
  <!-- Attack Pattern Lines -->
  <path d="M8 20 L12 20" stroke="#ef4444" stroke-width="1" opacity="0.6"/>
  <path d="M20 20 L24 20" stroke="#ef4444" stroke-width="1" opacity="0.6"/>
</svg>